<svg xmlns="http://www.w3.org/2000/svg" viewBox="0 0 633.1 81.63"><defs><style>.cls-1{fill:#fff;}</style></defs><g id="Layer_2" data-name="Layer 2"><g id="Capa_1" data-name="Capa 1"><rect id="rect603" class="cls-1" width="633.1" height="81.63" rx="19.45"/><g id="g158"><g id="g154"><path id="path132" d="M172.24,27.66q4.17,4.41,4.17,12.94,0,9-4.07,13.72A13.21,13.21,0,0,1,161.85,59a11,11,0,0,1-6.79-2,12.91,12.91,0,0,1-2.89-3.28V71.48h-8.81V24h8.53v5a14.14,14.14,0,0,1,3.08-3.5,11.37,11.37,0,0,1,7.11-2.28A13.44,13.44,0,0,1,172.24,27.66Zm-6.83,6.4a6.34,6.34,0,0,0-5.89-3,6.69,6.69,0,0,0-6.72,4.59,17.28,17.28,0,0,0-1,6.19q0,5.94,3.19,8.34a7.3,7.3,0,0,0,4.48,1.41,6.51,6.51,0,0,0,5.73-2.88,13.28,13.28,0,0,0,2-7.66A13.3,13.3,0,0,0,165.41,34.06Z"/><path id="path134" d="M206,24.69a13.79,13.79,0,0,1,5.89,5,16.6,16.6,0,0,1,2.71,7,42.81,42.81,0,0,1,.29,6.76H190.12c.14,3.42,1.33,5.81,3.56,7.19A9.09,9.09,0,0,0,198.59,52a7.56,7.56,0,0,0,4.95-1.56,7.45,7.45,0,0,0,1.83-2.34h9.09a11.16,11.16,0,0,1-3.3,6.16q-4.57,5-12.82,5a18.61,18.61,0,0,1-12-4.19q-5.19-4.18-5.2-13.64,0-8.85,4.69-13.57A16.46,16.46,0,0,1,198,23.11a19.35,19.35,0,0,1,8,1.58Zm-13.32,7.7a9.22,9.22,0,0,0-2.37,5.27h15.34a7.42,7.42,0,0,0-2.37-5.38A7.83,7.83,0,0,0,198,30.44,7.06,7.06,0,0,0,192.72,32.39Z"/><path id="path136" d="M239.51,23.2l.77.05v9.12q-.84-.09-1.5-.12l-1.06,0q-5.37,0-7.22,3.5a13.56,13.56,0,0,0-1,6.06V58.06h-9V24H229v5.94a19.17,19.17,0,0,1,3.59-4.66,9.76,9.76,0,0,1,6.5-2.09Z"/><path id="path138" d="M253.55,47.19a6,6,0,0,0,1.22,3.38q1.66,1.78,6.15,1.78a9.4,9.4,0,0,0,4.19-.78,2.49,2.49,0,0,0,1.55-2.34A2.53,2.53,0,0,0,265.41,47q-1.25-.78-9.32-2.69-5.8-1.44-8.18-3.59a7.81,7.81,0,0,1-2.38-6.12,10.62,10.62,0,0,1,3.71-8.11c2.47-2.26,6-3.39,10.44-3.39q6.39,0,10.41,2.55t4.62,8.8H265.8a5.23,5.23,0,0,0-1-2.72q-1.47-1.82-5-1.81a7.16,7.16,0,0,0-4.15.91,2.59,2.59,0,0,0-1.24,2.12,2.33,2.33,0,0,0,1.32,2.22q1.32.72,9.3,2.47,5.32,1.24,8,3.78a8.58,8.58,0,0,1,2.62,6.41,10.36,10.36,0,0,1-3.77,8.27q-3.76,3.21-11.66,3.2-8.06,0-11.88-3.39a11,11,0,0,1-3.84-8.64h9.05Z"/><path id="path140" d="M292.55,19.94h-9V11.72h9Zm-9,4.06h9V58.06h-9Z"/><path id="path142" d="M309.23,47.19a6,6,0,0,0,1.22,3.38q1.67,1.78,6.15,1.78a9.4,9.4,0,0,0,4.19-.78,2.49,2.49,0,0,0,1.55-2.34A2.53,2.53,0,0,0,321.09,47q-1.24-.78-9.32-2.69-5.81-1.44-8.18-3.59a7.81,7.81,0,0,1-2.38-6.12,10.62,10.62,0,0,1,3.71-8.11c2.47-2.26,6-3.39,10.44-3.39q6.39,0,10.41,2.55t4.62,8.8h-8.91a5.23,5.23,0,0,0-1-2.72q-1.47-1.82-5-1.81a7.16,7.16,0,0,0-4.15.91,2.59,2.59,0,0,0-1.24,2.12,2.33,2.33,0,0,0,1.32,2.22q1.32.72,9.3,2.47,5.32,1.24,8,3.78a8.58,8.58,0,0,1,2.62,6.41,10.36,10.36,0,0,1-3.77,8.27q-3.76,3.21-11.66,3.2-8.06,0-11.88-3.39a11,11,0,0,1-3.84-8.64h9.05Z"/><path id="path144" d="M335.57,30.66V24.31h4.75v-9.5h8.81v9.5h5.53v6.34h-5.53v18c0,1.4.18,2.27.53,2.61s1.44.52,3.25.52c.27,0,.56,0,.86,0l.89,0v6.66l-4.22.16q-6.31.22-8.62-2.19a6.51,6.51,0,0,1-1.5-4.72v-21Z"/><path id="path146" d="M375,37.35a14.37,14.37,0,0,0,3.56-.78A2.68,2.68,0,0,0,380.51,34,3,3,0,0,0,379,31.15a9.3,9.3,0,0,0-4.32-.8q-3.2,0-4.53,1.56A6.46,6.46,0,0,0,368.92,35h-8.59a13.06,13.06,0,0,1,2.51-7.34q3.54-4.5,12.18-4.5a21.69,21.69,0,0,1,10,2.22q4.37,2.22,4.36,8.38V49.41c0,1.08,0,2.4.06,3.94a5,5,0,0,0,.53,2.38,3.16,3.16,0,0,0,1.31,1v1.31h-9.69a9.64,9.64,0,0,1-.56-1.94c-.1-.6-.19-1.29-.25-2.06a18.52,18.52,0,0,1-4.28,3.41,13,13,0,0,1-6.54,1.66,11.31,11.31,0,0,1-7.69-2.64,9.39,9.39,0,0,1-3-7.48q0-6.29,4.88-9.09A21.9,21.9,0,0,1,372,37.74Zm5.45,4.15a10.31,10.31,0,0,1-1.73.86,14.77,14.77,0,0,1-2.39.61l-2,.38a13.19,13.19,0,0,0-4.09,1.22,4.06,4.06,0,0,0-2.1,3.78,4,4,0,0,0,1.29,3.3,4.88,4.88,0,0,0,3.12,1A9.27,9.27,0,0,0,377.93,51q2.46-1.69,2.55-6.16Z"/><path id="path148" d="M427.37,28.1q3.83,4.84,3.82,12.5,0,7.93-3.77,13.16a13.68,13.68,0,0,1-17.34,3.53,13.45,13.45,0,0,1-3.33-3.5v4.28H398v-46h8.91V28.45a13,13,0,0,1,3.74-3.62,11.21,11.21,0,0,1,6.17-1.56,12.67,12.67,0,0,1,10.58,4.83Zm-7.45,20.75a12.61,12.61,0,0,0,1.92-7.31,16.33,16.33,0,0,0-.95-6,6.58,6.58,0,0,0-6.62-4.5,6.68,6.68,0,0,0-6.71,4.41,16.38,16.38,0,0,0-.95,6.06,12.64,12.64,0,0,0,1.95,7.25,6.71,6.71,0,0,0,6,2.88A6.21,6.21,0,0,0,419.92,48.85Z"/><path id="path150" d="M447.62,58.06h-8.91V12h8.91Z"/><path id="path152" d="M479.66,24.69a13.79,13.79,0,0,1,5.89,5,16.6,16.6,0,0,1,2.71,7,42.81,42.81,0,0,1,.29,6.76H463.74c.14,3.42,1.33,5.81,3.56,7.19A9.09,9.09,0,0,0,472.21,52a7.56,7.56,0,0,0,5-1.56A7.45,7.45,0,0,0,479,48.1h9.09a11.16,11.16,0,0,1-3.3,6.16q-4.57,5-12.82,5A18.61,18.61,0,0,1,460,55q-5.19-4.18-5.2-13.64,0-8.85,4.69-13.57a16.46,16.46,0,0,1,12.18-4.72A19.35,19.35,0,0,1,479.66,24.69Zm-13.33,7.7A9.22,9.22,0,0,0,464,37.66H479.3a7.42,7.42,0,0,0-2.37-5.38,7.83,7.83,0,0,0-5.28-1.84A7.06,7.06,0,0,0,466.33,32.39Z"/></g><rect id="rect156" x="10.62" y="23.06" width="124.52" height="37.05"/><rect id="rect156-8" x="494.37" y="22.69" width="124.52" height="37.05"/></g><rect id="rect1679" class="cls-1" x="8.11" y="36.33" width="132.85" height="10.36"/><rect id="rect1679-9" class="cls-1" x="490.89" y="36.1" width="141.37" height="10.36"/><rect id="rect1690" class="cls-1" x="2.5" y="16.35" width="47.44" height="26.65" rx="5.18"/><rect id="rect1690-0" class="cls-1" x="581.28" y="41.84" width="43.03" height="26.65" rx="5.18"/></g></g></svg>